<svg xmlns="http://www.w3.org/2000/svg" version="1.1" xmlns:xlink="http://www.w3.org/1999/xlink" xmlns:svgjs="http://svgjs.dev/svgjs" width="1500" height="970" viewBox="0 0 1000 645"><g transform="matrix(1,0,0,1,0.10666666666668334,0.1026402892562146)"><svg viewBox="0 0 375 242" data-background-color="#ffffff" preserveAspectRatio="xMidYMid meet" height="645" width="1000" xmlns="http://www.w3.org/2000/svg" xmlns:xlink="http://www.w3.org/1999/xlink"><g id="tight-bounds" transform="matrix(1,0,0,1,-0.03976000000000113,-0.03848000000000695)"><svg viewBox="0 0 375.07953 242.07699000000005" height="242.07699000000005" width="375.07953"><g><svg></svg></g><g><svg viewBox="0 0 375.07953 242.07699000000005" height="242.07699000000005" width="375.07953"><g transform="matrix(1,0,0,1,-10.22024,-5.12303)"><path d="M10.22 242.077v-236.954h375.08l0 208.462-14.896 0 0-193.566h-345.288v207.162h88.463l0 14.896z" fill="#e9251e" fill-rule="nonzero" stroke="none" stroke-width="1" stroke-linecap="butt" stroke-linejoin="miter" stroke-miterlimit="10" stroke-dasharray="" stroke-dashoffset="0" font-family="none" font-weight="none" font-size="none" text-anchor="none" style="mix-blend-mode: normal" data-fill-palette-color="tertiary"></path><g><path d="M178.193 246.641h-19.927l6.518-32.498h19.136l-0.699 3.352h-15.317l-2.189 10.988h13.782l-0.652 3.353h-13.828l-2.281 11.453h16.109zM192.487 247.2v0c-1.862 0-3.601-0.382-5.215-1.145-1.614-0.757-2.902-1.834-3.864-3.232v0l2.467-2.188c0.838 1.117 1.8 1.971 2.887 2.561 1.086 0.59 2.328 0.885 3.725 0.885v0c1.583 0 2.887-0.382 3.911-1.146 1.024-0.757 1.536-1.881 1.536-3.371v0c0-0.807-0.242-1.499-0.726-2.076-0.478-0.571-1.415-0.996-2.812-1.276v0l-1.816-0.372c-0.9-0.186-1.744-0.428-2.533-0.727-0.795-0.292-1.477-0.68-2.049-1.164-0.577-0.478-1.03-1.068-1.359-1.769-0.323-0.695-0.484-1.54-0.484-2.533v0c0-0.993 0.18-1.949 0.54-2.868 0.354-0.913 0.903-1.72 1.648-2.421 0.745-0.695 1.676-1.254 2.793-1.676 1.117-0.416 2.421-0.624 3.911-0.624v0c1.769 0 3.29 0.301 4.563 0.903 1.273 0.608 2.359 1.487 3.259 2.636v0l-2.467 2.188c-0.528-0.745-1.242-1.366-2.142-1.862-0.9-0.497-2.064-0.745-3.492-0.745v0c-1.769 0-3.064 0.388-3.883 1.164-0.826 0.776-1.238 1.769-1.238 2.979v0c0 0.838 0.239 1.527 0.717 2.068 0.484 0.546 1.409 0.959 2.774 1.238v0l1.816 0.373c0.962 0.186 1.838 0.435 2.626 0.745 0.795 0.31 1.471 0.714 2.03 1.21 0.559 0.497 0.993 1.102 1.304 1.816 0.31 0.714 0.466 1.567 0.465 2.561v0c0 1.211-0.223 2.303-0.67 3.277-0.453 0.981-1.074 1.803-1.862 2.468-0.795 0.67-1.735 1.192-2.822 1.564-1.086 0.372-2.266 0.559-3.538 0.559zM214.602 246.641h-4.376c-1.086 0-1.903-0.273-2.449-0.819-0.54-0.54-0.81-1.245-0.811-2.114v0c0-0.279 0.047-0.652 0.14-1.117v0l3.399-16.808h-3.539l0.606-3.166h1.816c0.869 0 1.45-0.171 1.741-0.512 0.298-0.341 0.525-0.931 0.68-1.769v0l0.884-4.377h3.306l-1.304 6.658h5.075l-0.605 3.166h-5.075l-3.585 17.692h4.702zM222.796 247.2v0c-0.745 0-1.328-0.155-1.75-0.466-0.416-0.31-0.624-0.776-0.624-1.396v0c0-0.217 0.016-0.475 0.047-0.773 0.031-0.292 0.078-0.562 0.139-0.81v0c0.124-0.621 0.394-1.204 0.81-1.751 0.422-0.54 1.161-0.81 2.217-0.81v0c0.745 0 1.325 0.155 1.741 0.465 0.422 0.31 0.633 0.776 0.633 1.397v0c0 0.217-0.016 0.472-0.047 0.764-0.031 0.298-0.078 0.571-0.139 0.819v0c-0.062 0.31-0.155 0.621-0.28 0.931-0.124 0.31-0.304 0.58-0.54 0.811-0.23 0.236-0.525 0.431-0.884 0.586-0.354 0.155-0.795 0.233-1.323 0.233zM265.072 243.289l-0.698 3.352h-20.3l0.838-4.19 12.012-9.684c2.018-1.614 3.563-3.191 4.637-4.731 1.068-1.533 1.726-2.89 1.974-4.069v0c0.062-0.248 0.124-0.599 0.187-1.052 0.062-0.447 0.093-0.841 0.093-1.183v0c0-0.466-0.071-0.978-0.214-1.536-0.137-0.559-0.391-1.08-0.764-1.564-0.372-0.478-0.869-0.872-1.49-1.183-0.621-0.31-1.397-0.466-2.328-0.466v0c-1.8 0-3.259 0.487-4.376 1.462-1.117 0.981-2.064 2.387-2.84 4.219v0l-3.353-1.444c1.086-2.328 2.489-4.181 4.209-5.559 1.726-1.384 3.97-2.077 6.733-2.076v0c1.335 0 2.53 0.208 3.585 0.623 1.055 0.422 1.955 0.996 2.7 1.723 0.745 0.733 1.319 1.595 1.723 2.589 0.404 0.993 0.605 2.049 0.605 3.166v0c0 1.366-0.217 2.645-0.652 3.836-0.435 1.198-1.046 2.347-1.834 3.446-0.795 1.105-1.76 2.185-2.896 3.24-1.13 1.055-2.378 2.126-3.743 3.213v0l-10.057 7.868zM282.299 247.2v0c-1.459 0-2.741-0.273-3.846-0.819-1.099-0.54-2.005-1.301-2.719-2.282-0.714-0.975-1.251-2.145-1.611-3.51-0.354-1.366-0.531-2.887-0.531-4.563v0c0-1.645 0.124-3.352 0.373-5.122 0.248-1.769 0.627-3.486 1.136-5.149 0.515-1.657 1.161-3.225 1.937-4.702 0.776-1.471 1.692-2.759 2.746-3.865 1.055-1.099 2.25-1.974 3.586-2.626 1.335-0.652 2.825-0.978 4.469-0.977v0c1.459 0 2.731 0.27 3.818 0.81 1.086 0.546 1.996 1.307 2.728 2.281 0.726 0.981 1.27 2.154 1.63 3.52 0.354 1.366 0.531 2.887 0.531 4.563v0c0 1.645-0.124 3.352-0.373 5.121-0.248 1.769-0.63 3.483-1.145 5.14-0.509 1.664-1.152 3.231-1.928 4.703-0.776 1.477-1.692 2.766-2.747 3.864-1.055 1.105-2.26 1.983-3.613 2.635-1.347 0.652-2.828 0.978-4.441 0.978zM282.764 243.894v0c1.117 0 2.142-0.264 3.073-0.791 0.931-0.528 1.754-1.257 2.468-2.188 0.714-0.931 1.325-2.058 1.834-3.381 0.515-1.316 0.928-2.766 1.239-4.348v0l0.977-4.889c0.155-0.714 0.264-1.428 0.326-2.142 0.062-0.714 0.093-1.397 0.093-2.048v0c0-2.235-0.45-3.998-1.35-5.289-0.9-1.285-2.25-1.928-4.05-1.928v0c-1.117 0-2.142 0.264-3.073 0.792-0.931 0.528-1.754 1.257-2.468 2.188-0.714 0.931-1.328 2.055-1.844 3.371-0.509 1.322-0.919 2.775-1.229 4.358v0l-0.978 4.888c-0.155 0.714-0.264 1.428-0.325 2.142-0.062 0.714-0.093 1.397-0.094 2.049v0c0 2.235 0.45 3.995 1.351 5.279 0.9 1.291 2.25 1.937 4.05 1.937zM310.234 247.2v0c-1.459 0-2.741-0.273-3.846-0.819-1.099-0.54-2.005-1.301-2.719-2.282-0.714-0.975-1.251-2.145-1.611-3.51-0.354-1.366-0.531-2.887-0.531-4.563v0c0-1.645 0.124-3.352 0.373-5.122 0.248-1.769 0.627-3.486 1.136-5.149 0.515-1.657 1.161-3.225 1.937-4.702 0.776-1.471 1.692-2.759 2.747-3.865 1.055-1.099 2.25-1.974 3.585-2.626 1.335-0.652 2.825-0.978 4.469-0.977v0c1.459 0 2.731 0.27 3.818 0.81 1.086 0.546 1.993 1.307 2.719 2.281 0.733 0.981 1.276 2.154 1.63 3.52 0.36 1.366 0.54 2.887 0.54 4.563v0c0 1.645-0.124 3.352-0.373 5.121-0.248 1.769-0.63 3.483-1.145 5.14-0.509 1.664-1.152 3.231-1.927 4.703-0.776 1.477-1.692 2.766-2.747 3.864-1.055 1.105-2.26 1.983-3.613 2.635-1.347 0.652-2.828 0.978-4.442 0.978zM310.7 243.894v0c1.117 0 2.142-0.264 3.072-0.791 0.931-0.528 1.754-1.257 2.468-2.188 0.714-0.931 1.325-2.058 1.834-3.381 0.515-1.316 0.928-2.766 1.239-4.348v0l0.978-4.889c0.155-0.714 0.264-1.428 0.326-2.142 0.062-0.714 0.093-1.397 0.093-2.048v0c0-2.235-0.45-3.998-1.351-5.289-0.9-1.285-2.25-1.928-4.05-1.928v0c-1.117 0-2.142 0.264-3.073 0.792-0.931 0.528-1.754 1.257-2.468 2.188-0.714 0.931-1.328 2.055-1.843 3.371-0.509 1.322-0.919 2.775-1.23 4.358v0l-0.977 4.888c-0.155 0.714-0.264 1.428-0.326 2.142-0.062 0.714-0.093 1.397-0.093 2.049v0c0 2.235 0.45 3.995 1.35 5.279 0.9 1.291 2.25 1.937 4.051 1.937zM348.878 243.289l-0.699 3.352h-20.299l0.838-4.19 12.012-9.684c2.018-1.614 3.56-3.191 4.628-4.731 1.074-1.533 1.735-2.89 1.983-4.069v0c0.062-0.248 0.124-0.599 0.187-1.052 0.062-0.447 0.093-0.841 0.093-1.183v0c0-0.466-0.071-0.978-0.214-1.536-0.137-0.559-0.391-1.08-0.764-1.564-0.372-0.478-0.869-0.872-1.49-1.183-0.621-0.31-1.397-0.466-2.328-0.466v0c-1.8 0-3.259 0.487-4.376 1.462-1.117 0.981-2.064 2.387-2.84 4.219v0l-3.353-1.444c1.086-2.328 2.489-4.181 4.209-5.559 1.726-1.384 3.97-2.077 6.733-2.076v0c1.335 0 2.53 0.208 3.585 0.623 1.055 0.422 1.955 0.996 2.7 1.723 0.745 0.733 1.319 1.595 1.723 2.589 0.404 0.993 0.605 2.049 0.605 3.166v0c0 1.366-0.217 2.645-0.652 3.836-0.435 1.198-1.049 2.347-1.844 3.446-0.788 1.105-1.751 2.185-2.886 3.24-1.13 1.055-2.378 2.126-3.744 3.213v0l-10.056 7.868z" fill="#ee3e38" fill-rule="nonzero" stroke="none" stroke-width="1" stroke-linecap="butt" stroke-linejoin="miter" stroke-miterlimit="10" stroke-dasharray="" stroke-dashoffset="0" font-family="none" font-weight="none" font-size="none" text-anchor="none" style="mix-blend-mode: normal" data-fill-palette-color="secondary"></path></g></g><g transform="matrix(1,0,0,1,29.33176499999999,38.45064007772024)"><svg viewBox="0 0 316.416 165.17570984455958" height="165.17570984455958" width="316.416"><g><svg viewBox="0 0 316.416 165.17570984455958" height="165.17570984455958" width="316.416"><g><svg viewBox="0 0 316.416 165.17570984455958" height="165.17570984455958" width="316.416"><g><svg viewBox="0 0 316.416 165.17570984455958" height="165.17570984455958" width="316.416"><g id="textblocktransform"><svg viewBox="0 0 316.416 165.17570984455958" height="165.17570984455958" width="316.416" id="textblock"><g><svg viewBox="0 0 316.416 165.17570984455958" height="165.17570984455958" width="316.416"><g transform="matrix(1,0,0,1,0,0)"><svg width="316.416" viewBox="0.7 -39.6 77.2 40.300000000000004" height="165.17570984455958" data-palette-color="#e9251e"><path d="M19.8 0.7Q10.65 0.7 5.68-4.1 0.7-8.9 0.7-19.45L0.7-19.45Q0.7-30 5.68-34.8 10.65-39.6 19.8-39.6L19.8-39.6Q28.95-39.6 33.93-34.8 38.9-30 38.9-19.45L38.9-19.45Q38.9-8.9 33.93-4.1 28.95 0.7 19.8 0.7L19.8 0.7ZM19.8-8.2Q21.5-8.2 22.35-9.1 23.2-10 23.2-11.9L23.2-11.9 23.2-27Q23.2-28.9 22.35-29.8 21.5-30.7 19.8-30.7L19.8-30.7Q18.1-30.7 17.25-29.8 16.4-28.9 16.4-27L16.4-27 16.4-11.9Q16.4-9.95 17.25-9.08 18.1-8.2 19.8-8.2L19.8-8.2ZM77.9-38.9L77.9-26.8 69.3-26.8 69.3-30.7 66.1-30.7 66.1-8.2 69.6-8.2 69.6 0 48.6 0 48.6-8.2 52.1-8.2 52.1-30.7 48.9-30.7 48.9-26.8 40.3-26.8 40.3-38.9 77.9-38.9Z" opacity="1" transform="matrix(1,0,0,1,0,0)" fill="#e9251e" class="wordmark-text-0" data-fill-palette-color="primary" id="text-0"></path></svg></g></svg></g></svg></g></svg></g></svg></g></svg></g></svg></g></svg></g><defs></defs></svg><rect width="375.07953" height="242.07699000000005" fill="none" stroke="none" visibility="hidden"></rect></g></svg></g></svg>